<svg width="190" height="233" viewBox="0 0 190 233" fill="none" xmlns="http://www.w3.org/2000/svg">
<path d="M136.249 146.32C133.875 145.139 131.141 144.905 128.6 145.664C126.059 146.423 123.902 148.119 122.564 150.408C121.589 152.101 120.556 153.736 119.466 155.314C117.626 158.153 115.644 160.896 113.527 163.534C109.519 168.452 103.723 171.577 97.4126 172.223C91.1019 172.868 84.7931 170.981 79.8731 166.977C78.6196 165.94 77.4669 164.788 76.4303 163.534C74.3646 160.952 72.3849 158.241 70.4914 155.444C60.8245 140.543 54.1315 123.912 50.7812 106.469C48.8519 96.9036 47.6293 87.2088 47.1232 77.4636C46.7949 71.2068 48.7006 65.037 52.5 60.0551C56.2995 55.0733 61.7455 51.6036 67.8662 50.2653H68.1675C77.0378 48.3994 86.0239 47.1342 95.0646 46.4781C104.09 47.1219 113.061 48.3728 121.919 50.2222H122.177C128.297 51.5705 133.739 55.0503 137.531 60.0403C141.323 65.0303 143.217 71.2056 142.877 77.4636C142.877 79.3571 142.877 81.2937 142.489 83.3164C142.36 84.6918 142.505 86.0792 142.916 87.398C143.328 88.7168 143.998 89.9405 144.887 90.9978C145.776 92.0552 146.867 92.9251 148.095 93.5569C149.324 94.1886 150.666 94.5696 152.043 94.6777L177.52 96.7003C178.889 96.8181 180.267 96.6641 181.576 96.2469C182.885 95.8298 184.098 95.1579 185.146 94.2699C186.194 93.3819 187.056 92.2953 187.682 91.0728C188.309 89.8502 188.687 88.5159 188.795 87.1465C190.018 72.1467 189.902 57.0679 188.451 42.0885C188.116 38.5812 187.079 35.1771 185.4 32.0792C183.722 28.9813 181.437 26.253 178.682 24.0568C154.755 5.20729 111.117 0.989836 98.5074 2.40803e-05C96.1723 -0.172046 93.8277 -0.172046 91.4926 2.40654e-05C78.8833 0.989836 35.2455 5.20729 11.3179 24.0568C8.56391 26.2574 6.27733 28.9861 4.59237 32.0826C2.90742 35.1791 1.85803 38.5809 1.50582 42.0885C-1.59273 73.8486 -4.51913 177.951 83.2729 229.163C86.898 231.276 91.019 232.39 95.2152 232.39C99.4113 232.39 103.532 231.276 107.157 229.163C130.627 215.516 150.098 195.941 163.62 172.399C164.317 171.213 164.773 169.901 164.962 168.538C165.152 167.175 165.07 165.788 164.722 164.457C164.374 163.126 163.767 161.876 162.936 160.78C162.104 159.684 161.064 158.762 159.876 158.069L159.23 157.724L136.249 146.32Z" fill="#FDB235"/>
</svg>
