<svg width="289" height="62" viewBox="0 0 289 62" fill="none" xmlns="http://www.w3.org/2000/svg">
<g clip-path="url(#clip0_1_106)">
<path d="M5.10882 16.993V20.7347H0.90625V25.6139H5.10882V45.2282C5.10882 46.7164 6.63128 47.9087 8.54565 47.9087C10.46 47.9087 12.0187 46.7255 12.0187 45.2374V25.623H17.605V20.7439H12.0187V16.993C12.0187 12.4796 15.5158 11.6472 20.3032 12.7237V7.84443C13.5622 6.32273 5.10882 7.03021 5.10882 16.993ZM26.6342 25.623H26.4895V20.7439H20.8971V45.2434C20.8971 46.7317 22.4045 47.924 24.334 47.924C26.2634 47.924 27.7979 46.7317 27.7979 45.2434V32.9083C27.7979 27.0898 31.5453 25.6108 36.0824 25.6108V20.1217C31.9793 20.1003 28.1356 21.4696 26.6342 25.623ZM74.9307 20.1339C68.268 20.1339 62.8716 23.4731 62.8716 30.0356C62.8716 33.5303 64.4061 36.1103 66.8511 37.76C66.6702 37.8789 66.4953 38.0009 66.3235 38.129C63.2937 40.3948 62.9681 44.3012 65.7446 46.4328C64.3851 47.6525 62.4585 49.836 62.4585 52.8794C62.4585 57.7098 66.9204 60.8295 74.9276 60.8295C82.9348 60.8295 89.0488 57.0328 89.0488 51.187C89.0488 45.341 85.0331 43.0448 77.7072 43.0448H72.9167C69.5613 43.0448 69.8477 40.6998 70.9541 39.6903C71.0114 39.6385 71.0718 39.5897 71.1381 39.5378C72.385 39.8029 73.6565 39.9318 74.9307 39.9221C81.5963 39.9221 86.9897 36.5677 86.9897 30.0264C87.0047 28.672 86.7409 27.3292 86.2148 26.0834C87.2353 25.8012 88.2864 25.6486 89.3442 25.6291V20.7499C86.3807 20.7499 84.4693 20.9512 82.4435 21.9484C80.3904 20.7255 77.7766 20.1186 74.9307 20.1186V20.1339ZM71.2677 47.9332H77.7012C80.3421 47.9332 82.142 48.7626 82.142 51.187C82.142 54.4439 79.3804 55.9442 74.9065 55.9442C68.0389 55.9289 68.4489 50.2202 71.2677 47.9179V47.9332ZM74.9307 35.0429C72.0817 35.0429 69.7664 33.9238 69.7664 30.0326C69.7664 26.1414 72.0817 25.0223 74.9307 25.0223C77.7796 25.0223 80.0979 26.1384 80.0979 30.0326C80.0979 33.9268 77.7856 35.0429 74.9307 35.0429ZM48.6209 20.1186C41.1321 20.1186 36.5618 24.8057 36.5618 34.0183C36.5618 43.2308 41.1382 47.9179 48.6209 47.9179C56.1035 47.9179 60.6799 43.2308 60.6799 34.0183C60.6799 24.8057 56.1125 20.1186 48.6209 20.1186ZM48.6209 43.0295C45.7689 43.0295 43.4565 41.8585 43.4565 34.0183C43.4565 26.1781 45.784 25.0131 48.6209 25.0131C51.4577 25.0131 53.7851 26.181 53.7851 34.0183C53.7851 41.8555 51.4728 43.0295 48.6209 43.0295Z" fill="#050038"/>
</g>
<defs>
<clipPath id="clip0_1_106">
<rect width="287.938" height="61.7009" fill="white" transform="translate(0.90625 0.00109863)"/>
</clipPath>
</defs>
</svg>
